<?xml version="1.0" encoding="UTF-8"?>
<svg version="1.1" xmlns="http://www.w3.org/2000/svg" width="330" height="220">
<path d="M0 0 C108.9 0 217.8 0 330 0 C330 72.6 330 145.2 330 220 C221.1 220 112.2 220 0 220 C0 147.4 0 74.8 0 0 Z " fill="#032B87" transform="translate(0,0)"/>
<path d="M0 0 C42.24 0 84.48 0 128 0 C128 24.09 128 48.18 128 73 C85.76 73 43.52 73 0 73 C0 48.91 0 24.82 0 0 Z " fill="#FFFFFF" transform="translate(202,147)"/>
<path d="M0 0 C42.24 0 84.48 0 128 0 C128 24.09 128 48.18 128 73 C85.76 73 43.52 73 0 73 C0 48.91 0 24.82 0 0 Z " fill="#FFFFFF" transform="translate(0,147)"/>
<path d="M0 0 C42.24 0 84.48 0 128 0 C128 24.09 128 48.18 128 73 C85.76 73 43.52 73 0 73 C0 48.91 0 24.82 0 0 Z " fill="#FFFFFF" transform="translate(202,0)"/>
<path d="M0 0 C42.24 0 84.48 0 128 0 C128 24.09 128 48.18 128 73 C85.76 73 43.52 73 0 73 C0 48.91 0 24.82 0 0 Z " fill="#FFFFFF" transform="translate(0,0)"/>
<path d="M0 0 C24.42 0 48.84 0 74 0 C74 24.09 74 48.18 74 73 C49.58 73 25.16 73 0 73 C0 48.91 0 24.82 0 0 Z " fill="#DC191F" transform="translate(128,147)"/>
<path d="M0 0 C24.42 0 48.84 0 74 0 C74 24.09 74 48.18 74 73 C49.58 73 25.16 73 0 73 C0 48.91 0 24.82 0 0 Z " fill="#DC191F" transform="translate(128,0)"/>
<path d="M0 0 C2 3 2 3 2 6 C3.98 6 5.96 6 8 6 C7.484375 6.350625 6.96875 6.70125 6.4375 7.0625 C4.59853617 9.09468727 4.59853617 9.09468727 5.3125 12.6875 C5.6528125 14.3271875 5.6528125 14.3271875 6 16 C5.443125 15.649375 4.88625 15.29875 4.3125 14.9375 C1.42840819 13.76827359 -0.05190765 14.14660484 -3 15 C-3.99 15.495 -3.99 15.495 -5 16 C-4.9071875 14.3603125 -4.9071875 14.3603125 -4.8125 12.6875 C-4.64402086 9.07873917 -4.64402086 9.07873917 -6.5 7.0625 C-6.995 6.711875 -7.49 6.36125 -8 6 C-6.02 6 -4.04 6 -2 6 C-1.34 4.02 -0.68 2.04 0 0 Z " fill="#E7EBF4" transform="translate(116,97)"/>
<path d="M0 0 C0.66 0.33 1.32 0.66 2 1 C2.625 3.5625 2.625 3.5625 3 6 C4.98 6 6.96 6 9 6 C8.505 6.350625 8.01 6.70125 7.5 7.0625 C5.26936034 9.94374289 5.80019379 12.47009026 6 16 C5.01 15.34 4.02 14.68 3 14 C0.48400985 14.33652369 0.48400985 14.33652369 -2 15 C-2.99 15 -3.98 15 -5 15 C-4.773125 14.071875 -4.54625 13.14375 -4.3125 12.1875 C-3.63680017 9.03173152 -3.63680017 9.03173152 -5.4375 7.125 C-5.953125 6.75375 -6.46875 6.3825 -7 6 C-5.02 6 -3.04 6 -1 6 C-0.67 4.02 -0.34 2.04 0 0 Z " fill="#E9ECF4" transform="translate(213,97)"/>
<path d="M0 0 C0.66 0.33 1.32 0.66 2 1 C2.33 1.99 2.66 2.98 3 4 C5.97 4.495 5.97 4.495 9 5 C9 5.66 9 6.32 9 7 C7.35 7.66 5.7 8.32 4 9 C4.66 11.31 5.32 13.62 6 16 C5.46375 15.46375 4.9275 14.9275 4.375 14.375 C1.96052929 12.60932055 1.96052929 12.60932055 -1.25 13.8125 C-2.1575 14.204375 -3.065 14.59625 -4 15 C-3.9071875 13.6078125 -3.9071875 13.6078125 -3.8125 12.1875 C-3.69105736 9.01604897 -3.69105736 9.01604897 -5.5 7.125 C-5.995 6.75375 -6.49 6.3825 -7 6 C-5.02 6 -3.04 6 -1 6 C-0.67 4.02 -0.34 2.04 0 0 Z " fill="#E4E9F2" transform="translate(144,126)"/>
<path d="M0 0 C0.66 0 1.32 0 2 0 C2.33 1.98 2.66 3.96 3 6 C4.98 6 6.96 6 9 6 C8.505 6.37125 8.01 6.7425 7.5 7.125 C5.40244486 9.74694393 5.78256165 11.73842472 6 15 C5.0925 14.62875 4.185 14.2575 3.25 13.875 C0.11902985 12.69640701 0.11902985 12.69640701 -2.375 13.875 C-2.91125 14.24625 -3.4475 14.6175 -4 15 C-3.9071875 13.6078125 -3.9071875 13.6078125 -3.8125 12.1875 C-3.69105736 9.01604897 -3.69105736 9.01604897 -5.5 7.125 C-5.995 6.75375 -6.49 6.3825 -7 6 C-5.02 6 -3.04 6 -1 6 C-0.67 4.02 -0.34 2.04 0 0 Z " fill="#E9ECF4" transform="translate(164,77)"/>
<path d="M0 0 C2 3 2 3 2 6 C3.98 6 5.96 6 8 6 C7.505 6.37125 7.01 6.7425 6.5 7.125 C4.40244486 9.74694393 4.78256165 11.73842472 5 15 C4.0925 14.608125 3.185 14.21625 2.25 13.8125 C-0.96052929 12.60932055 -0.96052929 12.60932055 -3.375 14.375 C-3.91125 14.91125 -4.4475 15.4475 -5 16 C-4.6596875 14.3603125 -4.6596875 14.3603125 -4.3125 12.6875 C-3.59853617 9.09468727 -3.59853617 9.09468727 -5.4375 7.0625 C-5.953125 6.711875 -6.46875 6.36125 -7 6 C-5.02 6 -3.04 6 -1 6 C-1.020625 5.195625 -1.04125 4.39125 -1.0625 3.5625 C-1 1 -1 1 0 0 Z " fill="#F1F3F8" transform="translate(185,126)"/>
</svg>
