<?xml version="1.0" encoding="UTF-8"?>
<svg version="1.1" xmlns="http://www.w3.org/2000/svg" width="330" height="165">
<path d="M0 0 C108.9 0 217.8 0 330 0 C330 54.45 330 108.9 330 165 C221.1 165 112.2 165 0 165 C0 110.55 0 56.1 0 0 Z " fill="#00793C" transform="translate(0,0)"/>
<path d="M0 0 C108.9 0 217.8 0 330 0 C330 18.15 330 36.3 330 55 C245.85 55.33 161.7 55.66 75 56 C84.405 62.93 84.405 62.93 94 70 C99.33785283 73.99431164 104.67450903 77.98935439 110 82 C105.89776159 86.38711608 101.36523786 89.80872788 96.5 93.3125 C89.43319536 98.45748519 82.4379242 103.68251408 75.5 109 C68.11399415 114.6540634 60.66804414 120.21471015 53.1640625 125.7109375 C47.22328159 130.07277332 41.35260442 134.52071939 35.5 139 C28.56227307 144.30710039 21.59238797 149.56545762 14.5625 154.75 C13.78777344 155.32234375 13.01304688 155.8946875 12.21484375 156.484375 C11.48523437 157.020625 10.755625 157.556875 10.00390625 158.109375 C9.37299072 158.57311523 8.7420752 159.03685547 8.09204102 159.51464844 C5.43498066 161.40116439 2.71137504 163.19241664 0 165 C0 110.55 0 56.1 0 0 Z " fill="#000000" transform="translate(0,0)"/>
<path d="M0 0 C84.48 0 168.96 0 256 0 C256 18.15 256 36.3 256 55 C171.52 55 87.04 55 0 55 C3.17450112 51.82549888 5.73933652 49.29175399 9.2578125 46.73046875 C10.04373779 46.15506348 10.82966309 45.5796582 11.6394043 44.98681641 C12.86977417 44.09615479 12.86977417 44.09615479 14.125 43.1875 C14.96651611 42.57310059 15.80803223 41.95870117 16.67504883 41.32568359 C19.11377549 39.54639538 21.55649554 37.77271824 24 36 C25.23075572 35.10325831 26.46126147 34.20617334 27.69140625 33.30859375 C30.12478252 31.53511613 32.56058184 29.76515202 35 28 C31.17083177 23.78583388 26.58564147 20.63940819 22 17.3125 C20.29535531 16.06540155 18.59092836 14.81800543 16.88671875 13.5703125 C16.05575684 12.96348633 15.22479492 12.35666016 14.36865234 11.73144531 C11.17380535 9.3960655 7.98764596 7.04958321 4.8125 4.6875 C3.87019531 3.99011719 2.92789063 3.29273438 1.95703125 2.57421875 C1.31121094 2.05472656 0.66539063 1.53523438 0 1 C0 0.67 0 0.34 0 0 Z " fill="#FEFEFE" transform="translate(74,55)"/>
<path d="M0 0 C6.01945235 4.01296824 11.73553587 8.02350334 17.375 12.5 C23.61102729 17.4009923 29.90990029 22.19375935 36.3125 26.875 C43.10162903 31.84053902 49.82147972 36.88665246 56.5 42 C63.11939083 47.06663428 69.77526924 52.07402208 76.5 57 C83.54776518 62.16691528 90.54166733 67.40069543 97.5 72.6875 C98.40298828 73.37134766 99.30597656 74.05519531 100.23632812 74.75976562 C101.07615234 75.39978516 101.91597656 76.03980469 102.78125 76.69921875 C103.52439453 77.26471436 104.26753906 77.83020996 105.03320312 78.4128418 C106.81587327 79.85141412 108.4188556 81.34548101 110 83 C99.89277241 90.74771117 89.77473417 98.47518138 79.5 106 C72.77500122 110.92560912 66.11947011 115.93348476 59.5 121 C52.12105185 126.64781662 44.68476226 132.2057912 37.18603516 137.69335938 C30.14389084 142.86044623 23.20315704 148.15655594 16.29101562 153.49609375 C15.47052734 154.12644531 14.65003906 154.75679687 13.8046875 155.40625 C13.09296387 155.95603516 12.38124023 156.50582031 11.64794922 157.07226562 C7.85096021 159.83651283 3.90781951 162.39478699 0 165 C0 110.55 0 56.1 0 0 Z " fill="#C3111B" transform="translate(0,0)"/>
<path d="M0 0 C1.85625 0.061875 1.85625 0.061875 3.75 0.125 C-1.25 4.125 -1.25 4.125 -3.8125 5.8125 C-8.2569194 10.02900046 -10.42300397 15.46039548 -10.8125 21.5625 C-10.50453409 27.06739059 -8.52075606 31.71918704 -5.25 36.125 C-2.93965229 38.03354811 -0.63754824 39.57230093 1.95703125 41.06640625 C2.84455078 41.59041016 2.84455078 41.59041016 3.75 42.125 C3.75 42.455 3.75 42.785 3.75 43.125 C-3.08299019 43.73508841 -6.9292763 42.46589021 -12.25 38.125 C-17.40336524 33.25865763 -19.29409382 28.23105286 -19.625 21.25 C-19.47069548 15.2048935 -17.76596569 10.75187833 -13.56640625 6.3671875 C-9.39671976 2.65482146 -5.77604262 -0.19253475 0 0 Z " fill="#C61A23" transform="translate(162.25,60.875)"/>
<path d="M0 0 C0.66 0.33 1.32 0.66 2 1 C2.90591398 3.95820059 3.40058396 6.96010437 4 10 C7.63 10 11.26 10 15 10 C10.25 14.875 10.25 14.875 8 16 C8.33 19.63 8.66 23.26 9 27 C6.41210938 25.4375 6.41210938 25.4375 3.82421875 23.875 C1.88638074 22.78376001 1.88638074 22.78376001 -1 23 C-3.096803 24.0836965 -3.096803 24.0836965 -5.1875 25.5 C-6.26064453 26.19609375 -6.26064453 26.19609375 -7.35546875 26.90625 C-7.89816406 27.2671875 -8.44085938 27.628125 -9 28 C-8.649375 26.783125 -8.29875 25.56625 -7.9375 24.3125 C-7.10206111 20.85488067 -6.50707008 18.35909232 -8 15 C-10.97763043 12.73674754 -10.97763043 12.73674754 -14 11 C-14 10.67 -14 10.34 -14 10 C-10.37 10 -6.74 10 -3 10 C-2.01 6.7 -1.02 3.4 0 0 Z " fill="#C71E27" transform="translate(168,68)"/>
</svg>
